#!OML:ASF H:\Male1\Project 1\Capture day 1\Session 1\Male1.ASF
:FULLY-SPECIFIED
:DEGREES
369
root 16.5966 14.4879 -3.37661 324.742 79.9235 -41.6378
lowerback 32.3098 0.234463 -3.90426
upperback 17.2213 1.19418 -4.30241
thorax 2.25735 1.34226 -2.71483
lowerneck -0.339466 6.52142 10.1709
upperneck -0.608599 8.71693 -3.37956
head 0.495768 4.37429 -2.73778
rclavicle 3.18055e-015 -2.46493e-014
rhumerus -27.3206 7.47225 -88.751
rradius 55.6016
rwrist -28.3923
rhand -18.2191 4.61919
rfingers 7.12502
rthumb 8.0589 -25.2072
lclavicle 3.18055e-015 -2.46493e-014
lhumerus 3.12727 -4.13193 69.4765
lradius 37.613
lwrist 19.319
lhand -32.1012 18.0656
lfingers 7.12502
lthumb -5.34639 47.9781
rfemur -43.2127 6.52295 33.2634
rtibia 49.2504
rfoot -17.148 -17.9147
rtoes -29.1209
lfemur -45.6875 -9.25807 -9.00932
ltibia 52.6936
lfoot -13.105 12.8548
ltoes -13.0336
370
root 16.6796 14.4398 -3.37467 324.029 80.0786 -42.7966
lowerback 33.0036 0.180456 -3.89091
upperback 17.3949 1.16048 -4.48098
thorax 2.19862 1.36197 -2.91377
lowerneck 0.172709 6.6204 10.61
upperneck -1.6246 8.92013 -3.57665
head 0.126462 4.46083 -2.92029
rclavicle -1.59028e-014 1.59028e-014
rhumerus -27.4927 7.3484 -89.0466
rradius 56.2808
rwrist -28.6599
rhand -17.9822 4.84538
rfingers 7.12502
rthumb 8.28749 -24.9721
lclavicle -1.59028e-014 1.59028e-014
lhumerus 4.90725 -4.4453 68.6403
lradius 37.1016
lwrist 18.9856
lhand -31.4228 17.863
lfingers 7.12502
lthumb -4.69136 47.7911
rfemur -43.6157 6.84549 33.0216
rtibia 48.0993
rfoot -16.4228 -17.5095
rtoes -28.0759
lfemur -46.6723 -9.07265 -9.0869
ltibia 54.0733
lfoot -13.7545 12.6227
ltoes -13.746
371
root 16.7553 14.3855 -3.37375 323.715 80.1687 -43.5956
lowerback 33.5819 0.143707 -3.82576
upperback 17.5394 1.15802 -4.68687
thorax 2.15347 1.39936 -3.17513
lowerneck 0.718182 6.70124 11.0141
upperneck -2.64819 9.11101 -3.73571
head -0.256533 4.53962 -3.09161
rclavicle 7.79236e-014 -7.95139e-016
rhumerus -27.6681 7.18615 -89.3303
rradius 56.8704
rwrist -28.9123
rhand -17.7121 4.98066
rfingers 7.12502
rthumb 8.54818 -24.8263
lclavicle 7.79236e-014 -7.95139e-016
lhumerus 6.77287 -4.52862 67.8774
lradius 36.3774
lwrist 18.3541
lhand -30.5821 17.5424
lfingers 7.12502
lthumb -3.87956 47.4868
rfemur -44.1452 7.00023 32.8835
rtibia 47.7039
rfoot -15.6959 -17.262
rtoes -26.7795
lfemur -47.7411 -8.78908 -9.17433
ltibia 55.4808
lfoot -14.3598 12.4055
ltoes -14.4519
372
root 16.8243 14.3271 -3.37319 323.746 80.1857 -44.0755
lowerback 34.0871 0.123712 -3.78947
upperback 17.654 1.16147 -4.88358
thorax 2.10473 1.43327 -3.41247
lowerneck 1.25993 6.78872 11.3253
upperneck -3.64681 9.31563 -3.87442
head -0.637016 4.62452 -3.24415
rclavicle 9.54166e-015 -6.36111e-015
rhumerus -27.7915 7.11317 -89.5657
rradius 57.3392
rwrist -29.1612
rhand -17.4536 4.94173
rfingers 7.12502
rthumb 8.79765 -24.8549
lclavicle 9.54166e-015 -6.36111e-015
lhumerus 8.62446 -4.30209 67.2454
lradius 35.5153
lwrist 17.4899
lhand -29.7285 17.1416
lfingers 7.12502
lthumb -3.0553 47.0995
rfemur -44.8591 6.96625 32.8859
rtibia 47.9724
rfoot -15.1105 -17.077
rtoes -25.5985
lfemur -48.8641 -8.42329 -9.24923
ltibia 56.9015
lfoot -14.9392 12.2053
ltoes -15.1047
373
root 16.8878 14.2663 -3.3725 323.893 80.1302 -44.4545
lowerback 34.5639 0.109659 -3.78029
upperback 17.7375 1.15573 -5.06321
thorax 2.03364 1.45617 -3.61525
lowerneck 1.76219 6.88861 11.5786
upperneck -4.58124 9.53505 -4.00906
head -0.993815 4.71731 -3.38632
rclavicle 4.77083e-015 4.77083e-015
rhumerus -27.8453 7.12989 -89.7724
rradius 57.6575
rwrist -29.3757
rhand -17.2667 4.73761
rfingers 7.12502
rthumb 8.97801 -25.0514
lclavicle 4.77083e-015 4.77083e-015
lhumerus 10.3835 -3.83989 66.7222
lradius 34.6235
lwrist 16.5331
lhand -29.0023 16.7377
lfingers 7.12502
lthumb -2.35396 46.7045
rfemur -45.7558 6.77607 33.042
rtibia 48.7408
rfoot -14.8005 -16.9213
rtoes -24.802
lfemur -50.0145 -7.99832 -9.27587
ltibia 58.3199
lfoot -15.5171 12.0117
ltoes -15.6864
374
root 16.9471 14.2048 -3.37148 324.066 80.0324 -44.8207
lowerback 35.0266 0.0880596 -3.82329
upperback 17.7973 1.11818 -5.21827
thorax 1.94274 1.45502 -3.75599
lowerneck 2.18831 7.01856 11.7694
upperneck -5.42205 9.78465 -4.15307
head -1.30872 4.82731 -3.51761
rclavicle 3.02153e-014 4.37326e-014
rhumerus -27.8094 7.25749 -89.955
rradius 57.8095
rwrist -29.5368
rhand -17.1819 4.52053
rfingers 7.12502
rthumb 9.05979 -25.2649
lclavicle 3.02153e-014 4.37326e-014
lhumerus 11.9933 -3.21637 66.269
lradius 33.7951
lwrist 15.6201
lhand -28.4732 16.3997
lfingers 7.12502
lthumb -1.84296 46.3715
rfemur -46.8106 6.48254 33.3046
rtibia 49.8234
rfoot -14.7814 -16.7451
rtoes -24.4515
lfemur -51.1716 -7.54392 -9.26317
ltibia 59.7129
lfoot -16.1101 11.8219
ltoes -16.2278
375
root 17.0033 14.1433 -3.36998 324.11 79.9108 -45.3292
lowerback 35.4772 0.0462546 -3.94643
upperback 17.8467 1.02743 -5.32125
thorax 1.84521 1.41564 -3.78418
lowerneck 2.54333 7.19891 11.8691
upperneck -6.19266 10.0858 -4.34598
head -1.58674 4.96692 -3.64593
rclavicle -2.06736e-014 -7.23576e-014
rhumerus -27.6655 7.55209 -90.0835
rradius 57.8079
rwrist -29.638
rhand -17.186 4.19458
rfingers 7.12502
rthumb 9.05588 -25.591
lclavicle -2.06736e-014 -7.23576e-014
lhumerus 13.4135 -2.45453 65.8641
lradius 33.0889
lwrist 14.8417
lhand -28.1293 16.143
lfingers 7.12502
lthumb -1.51078 46.1174
rfemur -47.9716 6.15517 33.6413
rtibia 51.0595
rfoot -15.0268 -16.5659
rtoes -24.5325
lfemur -52.3276 -7.08314 -9.2013
ltibia 61.0721
lfoot -16.7338 11.6205
ltoes -16.7187
376
root 17.0575 14.0829 -3.3682 323.978 79.7938 -46.0164
lowerback 35.9079 -0.00602576 -4.05926
upperback 17.9022 0.927705 -5.39611
thorax 1.76246 1.37031 -3.78453
lowerneck 2.83508 7.37326 11.9679
upperneck -6.9276 10.3674 -4.58577
head -1.84221 5.09903 -3.7889
rclavicle -3.33958e-014 -9.54166e-015
rhumerus -27.4541 7.80642 -90.1653
rradius 57.7009
rwrist -29.6682
rhand -17.2373 3.83804
rfingers 7.12502
rthumb 9.00633 -25.9497
lclavicle -3.33958e-014 -9.54166e-015
lhumerus 14.7243 -1.80306 65.4392
lradius 32.5187
lwrist 14.2635
lhand -27.8985 15.914
lfingers 7.12502
lthumb -1.28785 45.8899
rfemur -49.1676 5.83945 34.0042
rtibia 52.3407
rfoot -15.4231 -16.4056
rtoes -25.0537
lfemur -53.4625 -6.64921 -9.10768
ltibia 62.3938
lfoot -17.393 11.4075
ltoes -17.1215
377
root 17.111 14.0233 -3.36665 323.815 79.7154 -46.7229
lowerback 36.2945 -0.0525937 -4.1901
upperback 17.9892 0.838767 -5.43704
thorax 1.73209 1.32775 -3.74092
lowerneck 3.05242 7.52567 12.0581
upperneck -7.63834 10.6061 -4.86597
head -2.07937 5.21198 -3.94234
rclavicle 1.27222e-014 2.46493e-014
rhumerus -27.1899 7.97702 -90.1713
rradius 57.5467
rwrist -29.6485
rhand -17.3056 3.48423
rfingers 7.12502
rthumb 8.9405 -26.3063
lclavicle 1.27222e-014 2.46493e-014
lhumerus 15.9821 -1.31319 64.9948
lradius 32.0613
lwrist 13.8472
lhand -27.6932 15.6645
lfingers 7.12502
lthumb -1.08964 45.6414
rfemur -50.3167 5.55924 34.3252
rtibia 53.6125
rfoot -15.9006 -16.2589
rtoes -25.4597
lfemur -54.557 -6.27366 -9.03588
ltibia 63.6809
lfoot -18.0745 11.2027
ltoes -17.4018
378
root 17.1629 13.9633 -3.36503 323.432 79.6325 -47.6441
lowerback 36.6581 -0.0893731 -4.31444
upperback 18.0879 0.766943 -5.42899
thorax 1.72465 1.29041 -3.65314
lowerneck 3.25091 7.65844 12.1385
upperneck -8.33973 10.8123 -5.17046
head -2.31332 5.31056 -4.10402
rclavicle 6.36111e-015 -1.03368e-014
rhumerus -26.9185 8.07819 -90.1073
rradius 57.397
rwrist -29.6098
rhand -17.3717 3.17991
rfingers 7.12502
rthumb 8.87672 -26.6134
lclavicle 6.36111e-015 -1.03368e-014
lhumerus 17.186 -0.976357 64.522
lradius 31.6932
lwrist 13.552
lhand -27.4699 15.3812
lfingers 7.12502
lthumb -0.873958 45.3591
rfemur -51.4182 5.38641 34.6408
rtibia 54.8581
rfoot -16.4798 -16.1883
rtoes -25.7705
lfemur -55.6418 -5.93781 -8.91805
ltibia 64.9475
lfoot -18.7528 10.9969
ltoes -17.5542
